<?xml version="1.0" encoding="utf-8"?>
<!-- Generator: Adobe Illustrator 27.5.0, SVG Export Plug-In . SVG Version: 6.00 Build 0)  -->
<svg version="1.1" xmlns="http://www.w3.org/2000/svg" xmlns:xlink="http://www.w3.org/1999/xlink" x="0px" y="0px"
	 viewBox="0 0 500 500" style="enable-background:new 0 0 500 500;" xml:space="preserve">
<g id="BACKGROUND">
	<rect style="fill:#FFFFFF;" width="500" height="500"/>
</g>
<g id="OBJECTS">
	<g>
		<g>
			<path style="fill:#F6F6FC;" d="M414.743,419.619c0,0,43.933-33.805,40.381-76.146c-2.499-29.785-19.066-41.966-28.695-69.864
				s16.609-73.63,4.651-102.402c-21.145-50.874-70.711-49.666-103.7-30.62c-32.988,19.046-77.256,43.891-120.124,22.981
				c-18.929-9.233-46.604-39.127-94.304-27.932c-48.975,11.495-75.573,55.557-68.342,105.553
				c5.274,36.466,53.522,65.409,37.014,114.113c-16.111,47.534,31.305,64.318,31.305,64.318H414.743z"/>
			<g>
				<g>
					<path style="fill:#A0305E;" d="M315.471,389.635H140.024c-21.591,0-39.257-17.666-39.257-39.257v-74.162
						c0-21.591,17.666-39.257,39.257-39.257h175.447c21.591,0,39.257,17.666,39.257,39.257v74.162
						C354.728,371.97,337.062,389.635,315.471,389.635z"/>
					<path style="fill:#B23665;" d="M365.334,389.635H160.66c-21.592,0-26.42-17.666-26.42-39.257v-74.162
						c0-21.591,17.665-39.257,39.257-39.257h191.837c21.591,0,39.257,17.666,39.257,39.257v74.162
						C404.591,371.97,386.926,389.635,365.334,389.635z"/>
					<polyline style="opacity:0.36;fill:#E16E84;" points="179.062,363.224 179.062,389.635 100.767,388.184 100.767,363.224 					
						"/>
					<path style="fill:#A0305E;" d="M422.42,402.19h-34.28c-9.415,0-17.118-7.703-17.118-17.118v-46.635
						c0-9.415,7.703-17.118,17.118-17.118h34.28c9.415,0,17.118,7.703,17.118,17.118v46.635
						C439.538,394.487,431.835,402.19,422.42,402.19z"/>
					<path style="opacity:0.65;fill:#8E2D59;" d="M277.611,359.346V236.96h-4.422v122.387h-111.75v-19.332
						c0-15.794-7.635-23.036-20.223-23.036h-40.45v46.246l270.255,0.544v-4.422H277.611z"/>
					<g>
						<path style="fill:#B23665;" d="M413.775,419.619H123.24c-15.573,0-28.197-12.624-28.197-28.197
							c0-15.573,12.625-28.197,28.197-28.197h279.542c15.573,0,28.197,12.625,28.197,28.197
							C430.979,406.995,429.348,419.619,413.775,419.619z"/>
					</g>
					<g>
						<path style="fill:#A0305E;" d="M140.738,419.308h-34.297c-9.415,0-17.118-7.703-17.118-17.118v-63.754
							c0-9.415,7.703-17.118,17.118-17.118h34.297c9.415,0,17.118,7.703,17.118,17.118v63.754
							C157.856,411.605,150.153,419.308,140.738,419.308z"/>
						<path style="fill:#B23665;" d="M143.383,419.619h-11.306c-7.96,0-14.473-6.513-14.473-14.474v-69.354
							c0-7.96,6.513-14.473,14.473-14.473h11.306c7.96,0,14.473,6.513,14.473,14.473v69.354
							C157.856,413.106,151.343,419.619,143.383,419.619z"/>
					</g>
					<path style="fill:#B23665;" d="M425.065,419.619h-11.29c-7.96,0-14.473-6.513-14.473-14.474v-69.354
						c0-7.96,6.513-14.473,14.473-14.473h11.29c7.961,0,14.473,6.513,14.473,14.473v69.354
						C439.538,413.106,433.026,419.619,425.065,419.619z"/>
				</g>
				<g>
					<path style="fill:#587DA7;" d="M160.083,336.546c0,0-0.987,24.727,31.696,24.727c32.683,0,69.361,0,69.361,0
						s17.328-1.586,15.354-15.405c-2.405-16.834-17.328-14.696-38.166-16.67l32.902-19.302l16.496,34.825l20.192-4.148
						c0,0-4.478-34.885-12.56-48.884c-8.082-13.999-16.597-16.418-48.256-6.58C214.327,295.293,160.083,336.546,160.083,336.546z"/>
					<path style="fill:#D68070;" d="M164.081,258.976c0,0,1.029,4.625,0.835,6.919c-0.194,2.294,3.584,8.015,16.34,2.704
						c12.757-5.31,8.866-6.026,8.866-6.026s-1.765-3.538-2.171-5.318C187.603,255.726,164.081,258.976,164.081,258.976z"/>
					<g>
						<g>
							<g>
								<path style="fill:#EAAF2D;" d="M158.151,353.88l-8.42-55.482c0,0-15.423-9.596-13.726-14.073
									c2.555-5.809,7.343-10.211,8.827-11.645c6.263-6.051,14.632-7.284,19.128-8.562c0.222-0.063,0.741-0.35,0.894-0.411
									c0.054,0.54,0.081,1.225,0.081,1.225s9.992,3.21,16.009,2.299c9.147-1.385,9.681-2.602,8.764-5.679
									c17.723-1.82,29.023,27.761,29.023,27.761l-9.171,2.566l23.25,37.87c0,0-12.894-0.154-24.212,12.588
									C191.779,361.273,158.151,353.88,158.151,353.88"/>
							</g>
							<path style="opacity:0.05;fill:#050505;" d="M158.151,353.88c-0.283-1.216-6.709-44.208-6.709-44.208
								c7.999,25.323,11.759,37.717,21.632,45.824C173.074,355.496,167.064,355.255,158.151,353.88z"/>
							<polygon style="opacity:0.07;fill:#050505;" points="206.011,277.961 211.187,291.424 209.561,291.879 							"/>
						</g>
					</g>
					<g>
						<g>
							<path style="fill:#F8C295;" d="M185.753,338.836c-0.552-0.105-1.043-0.194-1.379-0.213"/>
						</g>
					</g>
					<path style="fill:#E0A74B;" d="M189.709,261.552c0,0,2.116,3.305-7.604,4.719c-9.745,1.418-17.169-1.339-17.169-1.339
						s-0.042-0.607-0.081-1.225c-0.738,0.328-2.589,1.189-3.86,2c0,0,6.568,4.542,16.586,4.253
						c7.943-0.229,13.192-2.602,14.991-5.013c1.388-1.861,0.601-3.357,0.601-3.357C192.172,261.414,189.709,261.552,189.709,261.552
						z"/>
					<polygon style="opacity:0.07;fill:#050505;" points="158.059,294.342 151.845,298.626 150.704,297.13 149.731,298.398 
						151.808,300.764 					"/>
					<g>
						<g>
							<path style="fill:#D68070;" d="M154.854,188.158c0,0-6.809,3.172-13.414,9.094c-6.773,6.072-13.334,15.033-12.126,26.429
								c0.696,6.562,2.524,12.667,5.398,18.015c6.986,12.997,20.149,21.516,38.236,21.216c12.764-0.212,25.726-4.635,34.129-13.937
								c8.404-9.302,11.163-25.944,6.068-38.29c-5.095-12.346-12.401-17.952-22.746-22.023
								C180.054,184.59,167.757,184.516,154.854,188.158z"/>
							<g>
								<path style="fill:#644147;" d="M109.698,192.568c2.808,11.149,14.122,17.911,25.271,15.103
									c11.149-2.808,17.911-14.122,15.103-25.271c-2.808-11.149-14.122-17.911-25.271-15.103S106.891,181.419,109.698,192.568z"/>
								<path style="fill:#644147;" d="M196.34,199.714c-1.881-0.535-43.079,24.665-53.429,33.055c0,0-1.884,8.399-3.726,10.186
									c1.64,4.934,3.953,9.459,8.63,13.19c0,0-9.902-0.734-16.518-6.588c-10.151-8.982-17.589-31.009-10.95-46.88
									c9.201-21.994,31.619-40.576,61.104-32.085c25.543,7.356,40.729,36.293,33.815,59.751
									C215.267,230.344,211.83,204.117,196.34,199.714z"/>
								<path style="fill:#EAAF2D;" d="M116.066,203.055c0,0,6.242-24.318,28.057-30.757l1.516,1.571c0,0-18.91,8.919-26.285,31.567
									C119.353,205.437,117.302,204.308,116.066,203.055z"/>
							</g>
							<g>
								<path style="fill:#E5917B;" d="M145.379,237.308c0.424,3.766-2.286,7.163-6.053,7.587c-3.766,0.424-7.163-2.286-7.587-6.053
									c-0.424-3.766,2.286-7.163,6.053-7.587C141.559,230.831,144.955,233.541,145.379,237.308z"/>
								<g>
									<path style="opacity:0.51;fill:#CD735F;" d="M135.46,241c-0.455,0.051-0.888-0.24-1.003-0.697
										c-0.025-0.102-0.61-2.518,0.727-4.433c0.84-1.203,2.212-1.894,4.061-2.112c0.51-0.054,0.967,0.315,1.021,0.825
										c0.054,0.51-0.334,0.949-0.825,1.021c-1.287,0.151-2.216,0.585-2.736,1.329c-0.845,1.209-0.452,2.902-0.448,2.919
										c0.125,0.497-0.177,1.002-0.675,1.126C135.542,240.988,135.501,240.995,135.46,241z"/>
								</g>
							</g>
							<g>
								<g>
									<path style="fill:#FFFFFF;" d="M186.344,242.203c6.075-1.4,4.432-9.029,2.956-8.001c-3.521,2.454-7.014,2.189-9.832,1.127
										C177.787,234.695,177.87,244.156,186.344,242.203z"/>
								</g>
								<g>
									<path style="fill:#C97165;" d="M182.584,230.997c0.025-0.006,0.049-0.014,0.074-0.022c0.117-0.04,1.153-0.405,1.788-0.774
										c1.534-0.893,1.904-1.919,1.944-2.622c0.041-0.727-0.23-1.833-1.756-2.972c-1.354-1.009-2.181-3.536-2.386-4.424
										c-0.109-0.47-0.577-0.764-1.047-0.656c-0.006,0.001-0.013,0.003-0.018,0.004c-0.459,0.116-0.745,0.578-0.639,1.042
										c0.036,0.156,0.895,3.832,3.044,5.435c0.695,0.518,1.08,1.055,1.056,1.472c-0.022,0.389-0.406,0.819-1.079,1.211
										c-0.414,0.241-1.211,0.539-1.482,0.634c-0.456,0.158-0.698,0.656-0.539,1.112
										C181.696,230.867,182.15,231.107,182.584,230.997z"/>
								</g>
								<path style="opacity:0.51;fill:#CD735F;" d="M165.496,237.767c1.095,4.35-1.543,8.764-5.893,9.859
									c-4.35,1.095-8.764-1.543-9.859-5.893c-1.096-4.35,1.543-8.764,5.892-9.859
									C159.986,230.779,164.401,233.417,165.496,237.767z"/>
								<path style="opacity:0.51;fill:#CD735F;" d="M215.219,229.609c-0.608,0.737-2.272,1.486-3.561,1.811
									c-4.35,1.095-8.764-1.543-9.859-5.893c-1.095-4.35,1.543-8.764,5.893-9.859c1.172-0.295,2.349-0.319,3.465-0.112
									C212.822,219.097,215.306,229.503,215.219,229.609z"/>
								<g>
									<path style="fill:#574950;" d="M196.183,217.269c0.082,0.63,0.906,2.773,1.843,2.326c1.024-0.489-0.004-2.5-0.305-3.11
										c-0.281-0.568,0.161-1.288,0.702-1.489c0.645-0.239,1.211,0.141,1.489,0.702c0.99,2.001,1.461,5.29-1.282,6.16
										c-2.587,0.821-4.489-2.257-4.768-4.413C193.669,215.96,195.99,215.784,196.183,217.269L196.183,217.269z"/>
								</g>
								<g>
									<path style="fill:#574950;" d="M160.487,225.8c0.082,0.63,0.906,2.773,1.843,2.326c1.024-0.489-0.003-2.5-0.305-3.11
										c-0.281-0.568,0.161-1.288,0.702-1.489c0.645-0.239,1.211,0.141,1.489,0.702c0.99,2.001,1.461,5.29-1.282,6.16
										c-2.587,0.821-4.489-2.257-4.768-4.413C157.974,224.491,160.295,224.315,160.487,225.8L160.487,225.8z"/>
								</g>
							</g>
						</g>
						<path style="opacity:0.51;fill:#CD735F;" d="M189.078,260.301c0,0-7.668,1.893-18.273,2.034c0,0,10.219,2.162,19.048-0.264
							L189.078,260.301z"/>
					</g>
					<path style="fill:#D68070;" d="M137.515,287.612c0,0-14.955,18.226-16.47,29.366c-0.923,6.782,18.248,4.678,20.828,7.258
						c2.515,2.515,3.57,6.853,4.039,7.322c0.6,0.6,1.501,0.222,1.094-1.102c-0.483-1.571-1.283-4.422-1.283-4.422
						s3.806,4.968,4.341,5.503c0.625,0.625,2.023,0.438,1.07-1.385c-1.084-2.073-3.136-5.384-3.136-5.384s3.826,3.764,4.538,4.476
						c0.872,0.872,1.888,0.189,1.511-1.093c-0.24-0.814-3.727-5.374-3.727-5.374s3.795,3.216,4.493,3.509
						c1.947,0.818,1.772-0.473,1.369-1.169c-0.276-0.479-2.837-3.366-5.372-5.174c-0.711-0.507,0.052-1.187-1.658-2.128
						c-1.143-0.629-3.392-0.7-3.821-0.848c-4.681-1.615-10.833-2.258-9.458-4.076c2.309-3.054,15.059-15.11,15.059-15.11
						S145.889,289.246,137.515,287.612z"/>
					<path style="fill:#D68070;" d="M217.83,289.565l2.938,5.189c0,0,31.851-14.733,38.268-15.611
						c6.416-0.879,8.034,0.055,9.093,0.666c1.059,0.611,3.093,1.853,0,1.853c-3.093,0-6.953,1.007-6.953,1.007
						s3.021,1.259,3.021,1.699c0,0.44-0.944,0.44-2.014,0.44c-1.07,0-4.28-1.133-5.602-0.566
						c-1.322,0.566-20.249,9.456-23.603,11.392c-3.354,1.936-16.146,6.725-17.98,6.096c-1.834-0.629-5.437-9.852-5.437-9.852
						L217.83,289.565z"/>
					<g>
						<polygon style="fill:#D68070;" points="291.453,343.955 293.96,352.844 305.78,351.859 304.164,341.344 						"/>
						<g>
							<path style="fill:#F6F6FC;" d="M293.358,353.719c0,0,0.751,3.669,1.04,6.02c0.187,1.521,2.846,2.572,9.029,2.572
								c6.184,0,13.955-0.711,15.268-2.025c1.313-1.313,2.627-3.776-0.876-4.98c-3.502-1.204-8.114-0.903-9.673-2.463
								c-0.876-0.876-1.445-2.045-1.776-2.902c-0.258-0.669-1.1-4.137-1.1-4.137l-13.218,2.258L293.358,353.719z"/>
							<path style="fill:#EAAF2D;" d="M313.619,361.699c3.434-0.428,4.476-0.813,5.076-1.413c1.313-1.313,2.627-3.776-0.876-4.98
								c-1.588-0.546-3.404-0.782-5.06-1.023C312.76,354.283,311.362,357.44,313.619,361.699z"/>
							<path style="fill:#EAAF2D;" d="M301.023,362.25c-4.217,0.061-6.464-1.204-6.625-2.511c-0.132-1.077-0.362-2.431-0.572-3.582
								C293.826,356.156,299.384,356.334,301.023,362.25z"/>
						</g>
					</g>
					<g>
						<path style="fill:#B0B0C6;" d="M129.886,228.266c0,0-4.344-31.183,17.063-49.752c22.854-19.824,46.516-2.291,46.516-2.291
							s-32.099-4.967-47.062,19.816c-8.494,14.07-8.174,29.606-8.174,29.606L129.886,228.266z"/>
						<g>
							
								<ellipse transform="matrix(0.7071 -0.7071 0.7071 0.7071 -126.4327 167.013)" style="fill:#9292AD;" cx="138.386" cy="236.124" rx="10.604" ry="10.604"/>
							
								<ellipse transform="matrix(0.2308 -0.973 0.973 0.2308 -126.0755 312.7689)" style="fill:#B0B0C6;" cx="134.781" cy="236.124" rx="10.604" ry="10.604"/>
						</g>
					</g>
				</g>
			</g>
			<g>
				<g>
					<g>
						<g>
							<path style="fill:#D0E108;" d="M50.677,318.881c0,0,35.176-1.314,28.731,26.736C79.408,345.617,54.51,357.288,50.677,318.881
								z"/>
						</g>
						<path style="fill:#96B200;" d="M80.661,345.574l-5.778-5.377l0.436-9.154c0.028-0.559-0.405-1.035-0.965-1.062
							c-0.56-0.027-1.036,0.405-1.062,0.966l-0.355,7.438l-3.484-3.242l0.357-7.498c0.027-0.559-0.405-1.035-0.965-1.062
							c-0.561-0.026-1.035,0.404-1.062,0.966l-0.276,5.783l-3.485-3.242l0.287-6.02c0.026-0.56-0.406-1.036-0.966-1.063
							c-0.56-0.027-1.033,0.406-1.063,0.965l-0.204,4.306l-3.485-3.243l0.174-3.678c0.027-0.56-0.405-1.035-0.965-1.062
							c-0.56-0.027-1.035,0.406-1.062,0.966l-0.093,1.962l-4.674-4.35l-1.293,0.005l0.204,1.755l4.39,4.085l-1.989,0.249
							c-0.556,0.071-0.95,0.578-0.881,1.133c0.07,0.556,0.578,0.951,1.133,0.881l3.675-0.46l3.493,3.251l-3.695,0.463
							c-0.557,0.071-0.95,0.578-0.881,1.133c0.07,0.556,0.578,0.951,1.133,0.881l5.381-0.674l3.493,3.25l-5.555,0.696
							c-0.556,0.07-0.949,0.578-0.881,1.133c0.069,0.556,0.577,0.951,1.133,0.881l7.241-0.906l3.492,3.25l-7.661,0.96
							c-0.557,0.071-0.95,0.578-0.881,1.133c0.07,0.556,0.578,0.951,1.133,0.881l9.347-1.171l5.775,5.374
							c0.41,0.382,1.053,0.359,1.435-0.051C81.094,346.599,81.071,345.956,80.661,345.574z"/>
					</g>
					<g>
						<g>
							<path style="fill:#D0E108;" d="M57.917,294.434c0,0,25.483-0.952,20.814,19.368
								C78.731,313.802,60.694,322.257,57.917,294.434z"/>
						</g>
						<path style="fill:#96B200;" d="M79.639,313.772l-4.186-3.895l0.316-6.631c0.02-0.405-0.294-0.75-0.699-0.769
							c-0.405-0.02-0.75,0.293-0.769,0.7l-0.257,5.389l-2.524-2.349l0.259-5.432c0.02-0.405-0.294-0.75-0.699-0.769
							c-0.406-0.019-0.75,0.292-0.769,0.7l-0.2,4.189l-2.524-2.349l0.208-4.361c0.019-0.405-0.294-0.75-0.7-0.77
							c-0.406-0.019-0.748,0.294-0.77,0.699l-0.148,3.119l-2.525-2.35l0.126-2.664c0.019-0.406-0.294-0.75-0.699-0.769
							c-0.406-0.02-0.75,0.294-0.769,0.7l-0.068,1.422l-3.386-3.151l-0.937,0.004l0.148,1.272l3.18,2.959l-1.441,0.18
							c-0.403,0.052-0.688,0.419-0.639,0.821c0.05,0.403,0.418,0.689,0.821,0.638l2.663-0.333l2.531,2.355l-2.677,0.335
							c-0.404,0.051-0.688,0.419-0.638,0.821c0.05,0.403,0.418,0.689,0.821,0.638l3.898-0.488l2.531,2.355l-4.024,0.504
							c-0.403,0.051-0.688,0.419-0.638,0.821c0.05,0.403,0.418,0.689,0.821,0.638l5.246-0.657l2.53,2.354l-5.55,0.695
							c-0.404,0.051-0.688,0.419-0.639,0.821c0.05,0.403,0.418,0.689,0.821,0.639l6.771-0.848l4.184,3.893
							c0.297,0.277,0.763,0.26,1.039-0.037C79.953,314.513,79.936,314.048,79.639,313.772z"/>
					</g>
					<g>
						<g>
							<path style="fill:#D0E108;" d="M106.177,299.283c0,0,1.13,30.242-22.986,24.702
								C83.191,323.985,73.157,302.579,106.177,299.283z"/>
						</g>
						<path style="fill:#96B200;" d="M83.228,325.062l4.623-4.968l7.87,0.374c0.481,0.024,0.89-0.348,0.913-0.83
							c0.023-0.481-0.348-0.89-0.831-0.913l-6.395-0.305l2.788-2.996l6.446,0.307c0.48,0.023,0.89-0.348,0.913-0.83
							c0.022-0.482-0.347-0.89-0.831-0.913l-4.972-0.237l2.788-2.996l5.175,0.247c0.481,0.022,0.891-0.349,0.914-0.831
							c0.023-0.482-0.349-0.888-0.83-0.914l-3.702-0.176l2.788-2.996l3.162,0.15c0.482,0.023,0.89-0.348,0.913-0.83
							c0.023-0.481-0.349-0.89-0.831-0.913l-1.687-0.08l3.74-4.019l-0.005-1.111l-1.509,0.176l-3.512,3.774l-0.214-1.71
							c-0.062-0.478-0.497-0.817-0.974-0.758c-0.478,0.06-0.817,0.497-0.758,0.974l0.395,3.16l-2.795,3.004l-0.398-3.177
							c-0.061-0.479-0.497-0.817-0.974-0.758c-0.478,0.06-0.817,0.497-0.758,0.974l0.58,4.626l-2.795,3.003l-0.598-4.776
							c-0.06-0.478-0.497-0.816-0.974-0.758c-0.478,0.06-0.817,0.496-0.758,0.974l0.779,6.225l-2.794,3.003l-0.825-6.586
							c-0.061-0.479-0.497-0.817-0.974-0.758c-0.478,0.06-0.817,0.496-0.758,0.974l1.007,8.036l-4.62,4.965
							c-0.328,0.353-0.308,0.905,0.044,1.233C82.347,325.435,82.899,325.415,83.228,325.062z"/>
					</g>
					<g>
						<g>
							<path style="fill:#D0E108;" d="M112.817,329.523c0,0,1.435,38.426-29.206,31.386
								C83.611,360.909,70.861,333.711,112.817,329.523z"/>
						</g>
						<path style="fill:#96B200;" d="M83.657,362.278l5.873-6.312l9.999,0.476c0.611,0.03,1.131-0.443,1.16-1.055
							c0.03-0.611-0.442-1.131-1.055-1.16l-8.126-0.387l3.542-3.806l8.191,0.39c0.61,0.03,1.131-0.443,1.16-1.055
							c0.028-0.612-0.441-1.13-1.056-1.16l-6.317-0.302l3.542-3.807l6.576,0.313c0.611,0.029,1.132-0.444,1.161-1.055
							c0.029-0.612-0.444-1.129-1.055-1.161l-4.704-0.223l3.543-3.807l4.017,0.19c0.612,0.029,1.131-0.443,1.16-1.054
							c0.029-0.612-0.443-1.13-1.056-1.16l-2.143-0.102l4.752-5.106l-0.006-1.412l-1.917,0.223l-4.463,4.796l-0.272-2.172
							c-0.078-0.607-0.632-1.038-1.238-0.963c-0.607,0.076-1.039,0.631-0.963,1.238l0.502,4.015l-3.551,3.816l-0.505-4.036
							c-0.078-0.609-0.632-1.038-1.238-0.963c-0.607,0.076-1.039,0.631-0.963,1.238l0.737,5.878l-3.551,3.816l-0.76-6.068
							c-0.076-0.608-0.631-1.037-1.238-0.963c-0.607,0.076-1.039,0.631-0.963,1.238l0.99,7.91l-3.55,3.815l-1.049-8.368
							c-0.077-0.609-0.632-1.038-1.238-0.963c-0.607,0.076-1.039,0.631-0.963,1.238l1.279,10.211l-5.871,6.309
							c-0.417,0.448-0.392,1.15,0.056,1.567C82.538,362.751,83.24,362.726,83.657,362.278z"/>
					</g>
					
						<line style="fill:none;stroke:#96B200;stroke-width:3.7935;stroke-linecap:round;stroke-linejoin:round;stroke-miterlimit:10;" x1="80.984" y1="303.285" x2="80.984" y2="375.736"/>
				</g>
				<polygon style="fill:#644147;" points="99.083,419.619 62.412,419.619 57.67,375.736 103.825,375.736 				"/>
			</g>
			<g>
				<path style="fill:none;stroke:#DCDCEA;stroke-width:0.6238;stroke-miterlimit:10;" d="M274.573,127.074l11.241-11.241
					c0.943-0.943,2.471-0.943,3.414,0l11.241,11.241"/>
				<path style="fill:#D5D5E2;" d="M311.939,192.602h-48.836c-1.699,0-3.077-1.378-3.077-3.077v-68.697
					c0-1.699,1.378-3.077,3.077-3.077h48.836c1.699,0,3.077,1.378,3.077,3.077v68.697
					C315.016,191.224,313.638,192.602,311.939,192.602z"/>
				<path style="fill:#F6F6FC;" d="M305.76,186.126h-36.479c-1.699,0-3.077-1.378-3.077-3.077v-55.745
					c0-1.699,1.378-3.077,3.077-3.077h36.479c1.699,0,3.077,1.378,3.077,3.077v55.745
					C308.837,184.748,307.46,186.126,305.76,186.126z"/>
			</g>
			<g>
				<path style="fill:none;stroke:#DCDCEA;stroke-width:0.75;stroke-miterlimit:10;" d="M364.315,195.033l8.406-8.406
					c0.705-0.705,1.848-0.705,2.553,0l8.406,8.406"/>
				<path style="fill:#D5D5E2;" d="M392.256,217.032h-36.518c-1.271,0-2.301-1.03-2.301-2.301v-24.369
					c0-1.271,1.03-2.301,2.301-2.301h36.518c1.271,0,2.301,1.03,2.301,2.301v24.369
					C394.557,216.002,393.526,217.032,392.256,217.032z"/>
				<path style="fill:#F6F6FC;" d="M387.635,212.19h-27.277c-1.271,0-2.301-1.03-2.301-2.301v-14.684
					c0-1.271,1.03-2.301,2.301-2.301h27.277c1.271,0,2.301,1.03,2.301,2.301v14.684C389.936,211.159,388.906,212.19,387.635,212.19z
					"/>
			</g>
			<g>
				<rect x="337.598" y="153.269" style="fill:#C7C7D8;" width="103.3" height="9.384"/>
				<rect x="349.949" y="110.775" style="fill:#D5D5E2;" width="10.853" height="42.493"/>
				<rect x="375.019" y="110.775" style="fill:#D5D5E2;" width="7.891" height="42.493"/>
				
					<rect x="386.828" y="116.036" transform="matrix(0.9765 -0.2154 0.2154 0.9765 -19.8321 87.3427)" style="fill:#D5D5E2;" width="7.891" height="37.233"/>
				<rect x="360.803" y="99.074" style="fill:#C7C7D8;" width="14.216" height="54.195"/>
			</g>
			<g>
				<path style="fill:#BCBCCE;" d="M205.647,145.728c0-0.432-0.35-0.783-0.783-0.783s-0.783,0.351-0.783,0.783v11.493
					c-0.511-0.321-1.112-0.514-1.76-0.514c-1.837,0-3.326,1.489-3.326,3.326c0,1.837,1.489,3.326,3.326,3.326
					c1.837,0,3.326-1.489,3.326-3.326c0-0.026-0.007-0.05-0.008-0.076c0.001-0.013,0.008-0.024,0.008-0.038V145.728z"/>
				<path style="fill:#BCBCCE;" d="M168.869,128.518c0-0.388-0.287-0.696-0.658-0.758v-0.025l-0.083,0.008
					c-0.015-0.001-0.027-0.008-0.042-0.008c-0.044,0-0.083,0.018-0.125,0.025l-12.536,1.266c-0.445,0.045-0.784,0.42-0.784,0.868
					v3.257l0.005-0.001v10.253c-0.511-0.321-1.112-0.514-1.76-0.514c-1.837,0-3.326,1.489-3.326,3.326
					c0,1.837,1.489,3.326,3.326,3.326c1.837,0,3.326-1.489,3.326-3.326c0-0.026-0.007-0.05-0.008-0.076
					c0.001-0.013,0.008-0.024,0.008-0.038v-13.11l11.092-1.12v8.138c-0.511-0.321-1.112-0.514-1.76-0.514
					c-1.837,0-3.326,1.489-3.326,3.326c0,1.837,1.489,3.326,3.326,3.326c1.837,0,3.326-1.489,3.326-3.326
					c0-0.026-0.007-0.05-0.008-0.076c0.001-0.013,0.008-0.024,0.008-0.038V128.518z"/>
				<path style="fill:#BCBCCE;" d="M218.999,129.003c0,0.388,0.287,0.696,0.658,0.758v0.025l0.083-0.008
					c0.015,0.001,0.027,0.008,0.042,0.008c0.044,0,0.083-0.018,0.125-0.025l12.537-1.266c0.445-0.045,0.784-0.42,0.784-0.868v-3.257
					l-0.005,0.001v-10.253c0.512,0.321,1.112,0.514,1.76,0.514c1.837,0,3.326-1.489,3.326-3.326c0-1.837-1.489-3.326-3.326-3.326
					c-1.837,0-3.326,1.489-3.326,3.326c0,0.026,0.007,0.05,0.008,0.075c-0.001,0.013-0.008,0.024-0.008,0.038v13.11l-11.092,1.12
					v-8.138c0.512,0.321,1.112,0.514,1.76,0.514c1.837,0,3.326-1.489,3.326-3.326s-1.489-3.326-3.326-3.326
					c-1.837,0-3.326,1.489-3.326,3.326c0,0.026,0.007,0.05,0.008,0.076c-0.001,0.013-0.008,0.024-0.008,0.038V129.003z"/>
			</g>
		</g>
	</g>
</g>
</svg>
